<?xml version="1.0" encoding="UTF-8" standalone="no"?>
<!-- Created with Inkscape (http://www.inkscape.org/) -->

<svg
   width="104.05108mm"
   height="46.425236mm"
   viewBox="0 0 104.05108 46.425236"
   version="1.1"
   id="svg1"
   xmlns:inkscape="http://www.inkscape.org/namespaces/inkscape"
   xmlns:sodipodi="http://sodipodi.sourceforge.net/DTD/sodipodi-0.dtd"
   xmlns="http://www.w3.org/2000/svg"
   xmlns:svg="http://www.w3.org/2000/svg">
  <sodipodi:namedview
     id="namedview1"
     pagecolor="#ffffff"
     bordercolor="#666666"
     borderopacity="1.0"
     inkscape:showpageshadow="2"
     inkscape:pageopacity="0.0"
     inkscape:pagecheckerboard="0"
     inkscape:deskcolor="#d1d1d1"
     inkscape:document-units="mm"
     showguides="true">
    <sodipodi:guide
       position="-0.043293042,229.60526"
       orientation="1,0"
       id="guide2"
       inkscape:locked="false" />
    <sodipodi:guide
       position="-179.04698,274.53884"
       orientation="0,-1"
       id="guide3"
       inkscape:locked="false" />
    <sodipodi:guide
       position="-59.95473,250.42814"
       orientation="0,-1"
       id="guide4"
       inkscape:locked="false" />
    <sodipodi:guide
       position="103.34047,264.31005"
       orientation="1,0"
       id="guide6"
       inkscape:locked="false" />
  </sodipodi:namedview>
  <defs
     id="defs1" />
  <g
     inkscape:label="Layer 1"
     inkscape:groupmode="layer"
     id="layer1"
     transform="translate(-37.670598,-71.424444)">
    <path
       style="font-size:25.4px;line-height:1.25;font-family:COCOTA;-inkscape-font-specification:COCOTA;letter-spacing:0.00529167px;fill:#0000ff;stroke:#ff6600;stroke-width:1.865"
       d="m 46.070699,92.712389 v -14.605 h 4.2164 v -3.2512 h -11.684 v 3.2512 h 4.2164 v 14.605 z m 18.674255,-0.0254 v -11.684 c 0,-3.3274 -2.667,-6.1214 -6.4516,-6.1214 -3.81,0 -6.477,2.794 -6.477,6.1214 v 11.684 h 3.2512 v -7.5946 h 6.4262 v 7.5946 z m -3.2512,-10.414 h -6.4262 v -0.7112 c 0,-2.1336 1.3462,-3.683 3.2258,-3.683 1.8542,0 3.2004,1.5494 3.2004,3.683 z m 16.439049,10.4394 h -8.0772 c -1.9812,0 -3.5814,-1.6002 -3.5814,-3.5814 v -14.2494 h 3.2512 v 14.5796 h 8.4074 z m 13.18787,0 h -8.0772 c -1.9812,0 -3.5814,-1.6002 -3.5814,-3.5814 v -14.2494 h 3.2512 v 14.5796 h 8.4074 z m 12.552867,0 v -3.0226 h -7.772401 v -4.4196 h 7.061201 v -2.8194 h -7.061201 v -4.5466 h 7.772401 v -3.0226 h -7.442201 c -1.9812,0 -3.5814,1.6002 -3.5814,3.5814 v 10.668 c 0,1.9812 1.6002,3.5814 3.5814,3.5814 z m 14.43247,0 -4.6228,-7.7724 c 2.3622,-0.5334 4.0132,-2.2098 4.0132,-4.8768 0,-3.2258 -2.4384,-5.1816 -5.6896,-5.1816 h -6.604 v 17.8308 h 3.2512 v -7.5946 h 1.3462 l 4.5212,7.5946 z m -6.2992,-10.414 h -3.3528 v -4.4196 h 3.3528 c 1.4478,0 2.4384,0.762 2.4384,2.1844 0,1.4478 -0.9906,2.2352 -2.4384,2.2352 z"
       id="text1"
       aria-label="Taller" />
    <path
       style="font-size:25.4px;line-height:1.25;font-family:COCOTA;-inkscape-font-specification:COCOTA;letter-spacing:0.00529167px;fill:#0000ff;stroke:#ff6600;stroke-width:1.865"
       d="m 44.311658,116.89178 c 4.4196,0 7.747,-3.6322 7.747,-8.9154 0,-5.2832 -3.3274,-8.890003 -7.747,-8.890003 h -5.6388 v 14.224003 c 0,1.9812 1.6002,3.5814 3.5814,3.5814 z m 0,-3.0226 h -2.3876 v -11.7856 h 2.3876 c 3.556,0 4.4958,2.54 4.4958,5.8928 0,3.3528 -0.9398,5.8928 -4.4958,5.8928 z m 20.299889,3.048 v -3.0226 h -7.7724 v -4.4196 h 7.0612 v -2.8194 h -7.0612 v -4.5466 h 7.7724 v -3.022603 h -7.4422 c -1.9812,0 -3.5814,1.600203 -3.5814,3.581403 v 10.668 c 0,1.9812 1.6002,3.5814 3.5814,3.5814 z m 22.667367,-0.0254 v -11.684 c 0,-3.3274 -2.667,-6.121403 -6.4516,-6.121403 -3.81,0 -6.477,2.794003 -6.477,6.121403 v 11.684 h 3.2512 v -7.5946 h 6.4262 v 7.5946 z m -3.2512,-10.414 h -6.4262 v -0.7112 c 0,-2.1336 1.3462,-3.683 3.2258,-3.683 1.8542,0 3.2004,1.5494 3.2004,3.683 z m 17.683656,10.4394 -4.622805,-7.7724 c 2.3622,-0.5334 4.013205,-2.2098 4.013205,-4.8768 0,-3.2258 -2.438405,-5.181603 -5.689605,-5.181603 h -6.604 v 17.830803 h 3.2512 v -7.5946 h 1.3462 l 4.5212,7.5946 z m -6.299205,-10.414 h -3.3528 v -4.4196 h 3.3528 c 1.4478,0 2.4384,0.762 2.4384,2.1844 0,1.4478 -0.9906,2.2352 -2.4384,2.2352 z m 14.457835,10.414 v -14.605 h 4.2164 v -3.251203 h -11.684 v 3.251203 h 4.2164 v 14.605 z m 16.76926,0 v -3.0226 h -7.7724 v -4.4196 h 7.0612 v -2.8194 h -7.0612 v -4.5466 h 7.7724 v -3.022603 h -7.4422 c -1.9812,0 -3.5814,1.600203 -3.5814,3.581403 v 10.668 c 0,1.9812 1.6002,3.5814 3.5814,3.5814 z m 7.01568,0 c 3.1242,0 5.7404,-1.143 6.3754,-3.683 0.1016,-0.4064 0.1524,-0.8382 0.1524,-1.27 0,-1.8288 -1.1684,-3.683 -5.5626,-5.3086 -2.4384,-0.9144 -3.3274,-1.6764 -3.3274,-2.6416 0,-1.1684 1.2192,-1.9558 2.7686,-1.9558 0.1778,0 0.381,0 0.5842,0.0254 1.0668,0.127 2.2352,0.5334 3.2258,1.27 l 1.8034,-2.5908 c -1.4478,-1.092203 -3.2512,-1.676403 -5.0292,-1.676403 -4.4704,0 -6.477,2.057403 -6.477,5.029203 0,2.3876 1.9558,4.0894 4.9022,5.334 2.3622,0.9906 3.9878,1.2954 3.9878,2.5146 0,1.3208 -1.3462,1.9558 -3.429,1.9558 -1.2192,0 -2.4384,-0.4826 -4.2926,-1.1938 l -1.0668,2.9972 c 2.0574,0.7874 3.683,1.1938 5.3848,1.1938 z"
       id="text1-8"
       aria-label="de artes" />
    <path
       id="path4"
       style="fill:#ffff00;stroke:#ff6600;stroke-width:0.765"
       inkscape:transform-center-x="-0.42748377"
       inkscape:transform-center-y="-0.14117675"
       transform="matrix(0.76221795,-0.44924001,0.45026614,0.76395896,23.050077,91.143166)"
       d="m 111.24267,52.810364 -1.35974,4.240063 2.722,3.523878 -4.45272,0.01706 -2.51026,3.677719 -1.39219,-4.229518 -4.273436,-1.250922 3.592296,-2.631049 -0.13086,-4.450831 3.61235,2.603441 z" />
    <path
       id="path5"
       style="fill:#ffff00;stroke:#ff6600;stroke-width:0.765"
       inkscape:transform-center-x="-0.11597329"
       inkscape:transform-center-y="0.1990351"
       transform="translate(8.8210702,18.168591)"
       d="m 129.23184,65.796126 -1.17552,-1.818733 -2.16465,-0.0627 1.36646,-1.680009 -0.60929,-2.07808 2.02005,0.78043 1.78809,-1.221625 -0.11801,2.162341 1.71439,1.323075 -2.09298,0.55597 z" />
    <path
       id="path6"
       style="fill:#ffff00;stroke:#ff6600;stroke-width:0.765"
       inkscape:transform-center-x="0.1499949"
       inkscape:transform-center-y="-0.21190636"
       transform="translate(14.776814,25.211303)"
       d="m 118.77795,53.50167 -2.33243,-0.862069 -2.03244,1.432678 0.0991,-2.484664 -1.99062,-1.490245 2.39369,-0.673538 0.80217,-2.3537 1.38026,2.068396 2.48639,0.03558 -1.54064,1.951876 z" />
  </g>
</svg>
